<svg xmlns="http://www.w3.org/2000/svg" width="128" height="128" viewBox="0 0 128 128">
  <path d="M113.071,30.243,85.757,2.929A9.936,9.936,0,0,0,78.687,0H26A10.011,10.011,0,0,0,16,10V118a10.011,10.011,0,0,0,10,10h80a10.011,10.011,0,0,0,10-10V37.313A9.933,9.933,0,0,0,113.071,30.243ZM109.172,32H90a6.006,6.006,0,0,1-6-6V6.829ZM112,118a6.006,6.006,0,0,1-6,6H26a6.006,6.006,0,0,1-6-6V10a6.006,6.006,0,0,1,6-6H78.687A6.04,6.04,0,0,1,80,4.149V26A10.011,10.011,0,0,0,90,36h21.851A6.04,6.04,0,0,1,112,37.313ZM72,36H28V32H72Zm24,8H28v4H96Zm8,12H36v4h68ZM88,68H44v4H88Zm8,12H28v4H96Zm8,12H36v4h68ZM88,104H44v4H88Z" fill="#0075a4"/>
</svg>
